<svg width="540" height="180" xmlns="http://www.w3.org/2000/svg"><g fill="none" fill-rule="evenodd"><path fill="#1F3E54" opacity=".8" d="M0 0h540v180H0z"/><path d="M258.855-.5h127.177l.018.481c1.336 35.388-12.153 78.267-33.802 110.442-22.58 33.559-49.613 49.207-72.335 38.517-15.4-7.246-23.212-18.29-25.445-33.89-1.687-11.79-.77-21.34 3.475-48.402 2.356-15.012 3.4-23.094 3.917-32.23.725-12.817-.095-23.978-2.838-34.29l-.167-.628z" stroke-opacity=".06" stroke="#0F1F2C" fill-opacity=".2" fill="#FFF"/><path d="M195.712 180.21C175.33 136.32 162.122 49.59 170.54-.083l.07-.416h178.135l.115.341c4.55 13.595 7.586 34.63 9.512 66.318 2.939 48.335-9.662 87.442-34.015 114.178l-.149.163H195.847l-.135-.29z" stroke-opacity=".06" stroke="#0F1F2C" fill-opacity=".2" fill="#FFF"/><path d="M194.24-.5h123.862l.06.432c1.303 9.53-.099 20.501-4.19 32.233-4.222 12.107-4.423 22.401-1.1 31.974 2.757 7.938 7.636 15.051 16.039 24.373 2.331 2.586 10.825 11.629 11.24 12.076 11.03 11.923 17.646 20.798 22.596 31.688 6.305 13.87 8.634 29.351 6.45 47.783l-.053.441H187.13l-.14-.117c-27.662-23.245-47.28-49.496-54.695-74.732-8.366-28.468-1.092-54.573 23.375-76.027 13.22-11.591 26.062-21.607 38.442-30.037l.127-.087z" stroke-opacity=".06" stroke="#0F1F2C" fill-opacity=".2" fill="#FFF"/><path d="M387.327.072c-.623 4.252-1.516 8.746-2.683 13.48-5.458 22.138-2.415 48.749 7.688 82.15 3.831 12.666 8.37 25.487 14.99 42.87 1.597 4.19 7.145 18.6 8.172 21.288 3.089 8.086 5.37 14.236 7.385 19.974l.234.666H314.472l-.15-.182c-24.725-29.994-45.904-64.933-58.286-96.784-13.655-35.127-16.005-64.52-5.197-83.779l.143-.255H387.41l-.084.572z" stroke-opacity=".06" stroke="#0F1F2C" fill-opacity=".2" fill="#FFF"/></g></svg>