<svg width="540" height="180" xmlns="http://www.w3.org/2000/svg"><g fill="none" fill-rule="evenodd"><path fill="#95C358" opacity=".8" d="M0 0h540v180H0z"/><path d="M130.838 179.872c19.342-73.087 36.83-132.711 54.29-180.045l.121-.327h76.572l.114.34c7.785 23.15 17.566 45.824 30.928 73.001 3.813 7.755 24.4 48.198 29.41 58.696 9.7 20.321 15.397 35.298 17.923 48.368l.115.595H130.672l.166-.628z" stroke-opacity=".06" stroke="#0F1F2C" fill-opacity=".2" fill="#FFF"/><path d="M227.562-.375c11.252 9.944 23.813 22.272 38.137 37.44 21.346 22.601 37.26 49.208 46.765 76.573 8.55 24.619 11.365 48.566 8.183 66.45l-.073.412h-67.701l-.144-.134C202.975 133.972 135.319 46.919 114.396.204L114.08-.5h113.34l.142.125z" stroke-opacity=".06" stroke="#0F1F2C" fill-opacity=".2" fill="#FFF"/><path d="M152.518-.5h46.561l.142.261c8.54 15.728 14.655 25.835 22.744 36.604 10.79 14.364 22.95 26.427 37.317 36.222 21.09 14.38 32.26 33.4 33.716 54.53 1.286 18.663-5.252 37.99-17.33 53.194l-.15.189h-90.536l-.144-.133c-21.613-19.971-37.932-46.35-45.387-75.156-8.457-32.679-5.337-67.113 10.776-100.983a350.052 350.052 0 0 1 2.154-4.45l.137-.278z" stroke-opacity=".06" stroke="#0F1F2C" fill-opacity=".2" fill="#FFF"/><path d="M247.806-.472c40.991 14.384 102.78 49.67 145.776 84.116 23.893 19.142 41.138 37.204 49.671 52.745 9.608 17.497 8.042 31.53-5.973 41.025a104.327 104.327 0 0 1-4.738 3.015l-.119.071H248.038l.728-.83c13.57-15.47 20.013-32.748 20.267-51.762.324-24.225-8.794-49.136-26.134-79.401-4.122-7.196-16.95-28.221-17.53-29.202-5.643-9.56-8.324-15.272-8.7-19.258l-.052-.547h31.023l.166.028z" stroke-opacity=".06" stroke="#0F1F2C" fill-opacity=".2" fill="#FFF"/></g></svg>