<svg width="540" height="180" xmlns="http://www.w3.org/2000/svg"><g fill="none" fill-rule="evenodd"><path fill="#F8C350" opacity=".8" d="M0 0h540v180H0z"/><path d="M287.58-.5h86.67l.118.07c26.412 15.772 50.772 35.066 68.217 54.66 19.884 22.337 30.112 44.14 28.449 63.678-1.521 17.873-.719 35.915 2.036 62.04l.059.552H323.256l-.008-.492c-.102-6.409-.122-11.618-.121-23.55 0-22.162-.125-32.219-.75-44.732-2.16-43.24-10.202-75.282-28.55-102.139-2.266-3.318-4.21-6.433-5.832-9.344l-.414-.743z" stroke-opacity=".06" stroke="#0F1F2C" fill-opacity=".2" fill="#FFF"/><path d="M147.657-.5h108.739l.21.046c36.027 16.668 69.65 36.752 92.707 55.912 26.319 21.87 37.877 41.497 31.141 56.707-4.35 9.824-6.501 20.836-6.928 33.54-.33 9.833.267 19.167 1.857 34.243l.058.552H199.059l-.142-.264c-3.783-7.075-5.421-14.632-5.444-23.586-.017-6.708.476-11.024 2.606-25.826 3.28-22.8 3.729-35.63.205-51.96-4.7-21.785-16.714-43.663-38.411-67.22-3.746-4.067-6.945-7.847-9.605-11.341l-.61-.803z" stroke-opacity=".06" stroke="#0F1F2C" fill-opacity=".2" fill="#FFF"/><path d="M141.762-.5h68.331l.163.027c38.019 13.104 81.256 35.202 111.335 57.437 34.811 25.732 49.318 49.157 36.772 65.875-3.596 4.792-6.989 9.848-10.313 15.306-3.448 5.663-6.704 11.543-10.495 18.823-1.506 2.892-7.653 14.945-9.246 17.99a353.432 353.432 0 0 1-2.814 5.281l-.142.261H155.327l-.15-.198c-6.135-8.08-7.739-16.774-5.726-27.254.841-4.378 2.292-9.058 4.476-14.725.879-2.28 1.856-4.675 3.14-7.726.54-1.284 2.81-6.621 3.394-8.007 7.912-18.792 11.431-30.884 11.735-44.992.396-18.422-5.772-36.683-20.209-55.994-6.745-9.022-10.11-16.21-10.215-21.594l-.01-.51z" stroke-opacity=".06" stroke="#0F1F2C" fill-opacity=".2" fill="#FFF"/><path d="M328.308-.42c48.16 31.007 71.76 53.016 79.39 73.697 3.603 9.768 3.783 19.49.891 30.49-2.416 9.19-6.62 18.656-14.646 33.965-6.857 13.08-.393 26.617 16.443 41.898l.959.87H279.889l-.103-.05c-42.9-20.85-67.001-54.318-71.271-92.733-3.769-33.904 8.895-68.146 31.812-88.094l.14-.123h87.717l.124.08z" stroke-opacity=".06" stroke="#0F1F2C" fill-opacity=".2" fill="#FFF"/></g></svg>