<svg width="540" height="180" xmlns="http://www.w3.org/2000/svg"><g fill="none" fill-rule="evenodd"><path fill="#F8C350" opacity=".8" d="M0 0h540v180H0z"/><path d="M61.302 180.13c-8.365-31.102-7.637-56.886 3.58-74.248 7.652-11.845 14.402-25.147 21.495-41.673 3.915-9.123 16.526-40.771 16.002-39.488 4.217-10.331 7.665-18.094 11.185-24.95l.14-.271h113.763l.147.149c19.539 19.794 24.49 42.178 17.72 69.787-2.838 11.575-7.675 24.039-14.865 39.031-2.928 6.104-6.198 12.544-10.377 20.507-2.287 4.357-10.306 19.44-11.213 21.157-6.398 12.106-10.966 21.087-15.212 30.082l-.135.287H61.402l-.1-.37z" stroke-opacity=".06" stroke="#0F1F2C" fill-opacity=".2" fill="#FFF"/><path d="M151.323 180.185c-14.925-37.494-25.824-76.473-29.515-107.3-4.22-35.243.99-58.232 16.738-64.631 5.37-2.183 10.542-5.076 15.594-8.662l.13-.092h140.825l.139.274c18.117 35.744 24.958 60.529 22.584 78.767-1.96 15.056-9.252 24.92-25.26 37.776-.227.182-14.857 11.56-19.22 15.242-16.673 14.068-27.684 28.338-35.169 48.614l-.12.327h-86.602l-.125-.315z" stroke-opacity=".06" stroke="#0F1F2C" fill-opacity=".2" fill="#FFF"/><path d="M204.703 180.216c-16.017-33.366-29.535-73.476-35.646-106.881C162.1 35.302 165.004 8.744 179.195-.42l.124-.08h153.738l.15.186c9.025 11.212 18.022 26.19 27.222 45.48 13.41 28.118 16.554 46.955 10.963 60.056-4.524 10.603-13.26 16.688-32.27 24.886-1.78.767-8.456 3.596-9.915 4.223-3.975 1.706-7.153 3.128-10.219 4.594-21.338 10.2-35.2 22.094-44.258 41.288l-.135.287H204.84l-.136-.284z" stroke-opacity=".06" stroke="#0F1F2C" fill-opacity=".2" fill="#FFF"/><path d="M228.482 180.2c-26.018-59.438-34.318-87.553-29.778-105.21 4.47-17.389 20.675-24.375 61.905-29.52 16.858-2.105 28.19-8.465 35.216-18.361 5.26-7.41 7.7-15.72 9.094-27.17l.054-.439h20.009l.15.187a439.703 439.703 0 0 1 3.914 4.954c12.389 15.893 15.278 45.558 9.374 81.572-5.474 33.392-18.086 68.822-33.504 94.048l-.146.239h-76.157l-.131-.3z" stroke-opacity=".06" stroke="#0F1F2C" fill-opacity=".2" fill="#FFF"/></g></svg>