<svg width="540" height="180" xmlns="http://www.w3.org/2000/svg"><g fill="none" fill-rule="evenodd"><path fill="#4DC797" opacity=".8" d="M0 0h540v180H0z"/><path d="M354.075 180.5H285.08l-.15-.2c-12.998-17.333-24.11-49.27-31.385-87.293-6.663-34.826-9.206-70.629-6.605-93.065l.051-.442h32.91l.143.257a197.798 197.798 0 0 1 1.899 3.51c10.9 20.62 23.213 34.727 36.813 43.237 10.718 6.708 22.02 9.831 34.11 10.072 9.279.184 18.014-1.198 29.314-4.083 1.8-.46 7.883-2.072 7.385-1.942 2.729-.715 4.612-1.173 6.315-1.52 4.28-.868 7.08-.921 9 .021 4.36 2.143 3.747 9.242-2.126 24.633-3.789 9.93-15.48 42.334-16.786 45.845-11.523 30.97-20.297 48.598-31.744 60.812l-.148.158z" stroke-opacity=".06" stroke="#0F1F2C" fill-opacity=".2" fill="#FFF"/><path d="M320.274 180.5H209.829l-.139-.116c-34.288-28.579-69.151-70.786-83.742-104.66-18.513-42.98-5.085-70.315 46.692-74.28 38.37-2.939 63.526 1.822 80.057 13.757 7.102 5.128 12.648 11.563 17.382 19.724 3.678 6.338 6.337 12.442 10.814 24.072l1.108 2.882c.443 1.152.783 2.034 1.117 2.893.85 2.19 1.58 4.038 2.299 5.806 8.37 20.588 17.024 33.634 31.879 44.519 25.343 18.57 24.674 44.094 3.124 65.26l-.146.143z" stroke-opacity=".06" stroke="#0F1F2C" fill-opacity=".2" fill="#FFF"/><path d="M155.626-.388c7.141 5.818 15.268 11.936 24.952 18.853 6.86 4.899 13.605 9.58 24.542 17.077 24.949 17.101 31.139 21.414 41.57 29.2 14.187 10.59 24.722 19.627 32.292 28.003 18.109 20.039 18.843 36.273-.976 49.7-13.586 9.203-25.093 21.715-35.791 37.832l-.149.223h-97.445l-.112-.346C125.427 121.404 110.533 41.207 111.343-.01l.01-.49h44.135l.138.112z" stroke-opacity=".06" stroke="#0F1F2C" fill-opacity=".2" fill="#FFF"/><path d="M112.689-.435c12.65 7.137 18.737 16.319 26.155 35.74.63 1.65 3.26 8.678 3.971 10.54 1.628 4.265 3.046 7.786 4.556 11.252 3.827 8.782 8.023 16.604 13.24 24.287 13.001 19.147 31.892 36.536 59.646 53.187 26.506 15.902 35.843 31.528 29.394 45.637l-.134.292H76.06l-.14-.267c-12.912-24.5-22.7-62.148-25.567-97.78C47.265 44.077 52.46 13.421 65.99-.35l.146-.15h46.438l.115.065z" stroke-opacity=".06" stroke="#0F1F2C" fill-opacity=".2" fill="#FFF"/></g></svg>