<svg width="19" height="19" viewBox="0 0 19 19" fill="none" xmlns="http://www.w3.org/2000/svg">
<path d="M9.33333 1V3.08333M9.33333 1C4.73096 1 1 4.73096 1 9.33333M9.33333 1C13.9357 1 17.6667 4.73096 17.6667 9.33333M9.33333 15.5833V17.6667M9.33333 17.6667C13.9357 17.6667 17.6667 13.9357 17.6667 9.33333M9.33333 17.6667C4.73096 17.6667 1 13.9357 1 9.33333M3.08333 9.33333H1M17.6667 9.33333H15.5833M15.232 15.232L13.7539 13.7539M3.43469 15.232L4.91429 13.7524M3.43469 3.5L4.88173 4.94704M15.232 3.5L10.5833 8.08333M11 9.33333C11 10.2538 10.2538 11 9.33333 11C8.41286 11 7.66667 10.2538 7.66667 9.33333C7.66667 8.41286 8.41286 7.66667 9.33333 7.66667C10.2538 7.66667 11 8.41286 11 9.33333Z" stroke="#495862" stroke-width="1.5" stroke-linecap="round" stroke-linejoin="round"/>
</svg>
