<svg width="19" height="15" viewBox="0 0 19 15" fill="none" xmlns="http://www.w3.org/2000/svg">
<path d="M9.28571 3.57143C9.28571 4.51863 8.90944 5.42704 8.23967 6.09681C7.56989 6.76658 6.66149 7.14286 5.71428 7.14286C4.76708 7.14286 3.85868 6.76658 3.1889 6.09681C2.51913 5.42704 2.14286 4.51863 2.14286 3.57143C2.14286 2.62423 2.51913 1.71582 3.1889 1.04605C3.85868 0.376274 4.76708 0 5.71428 0C6.66149 0 7.56989 0.376274 8.23967 1.04605C8.90944 1.71582 9.28571 2.62423 9.28571 3.57143ZM14.2857 7.14286C15.0435 7.14286 15.7702 6.84184 16.306 6.30602C16.8418 5.7702 17.1429 5.04348 17.1429 4.28571C17.1429 3.52795 16.8418 2.80123 16.306 2.26541C15.7702 1.72959 15.0435 1.42857 14.2857 1.42857C13.528 1.42857 12.8012 1.72959 12.2654 2.26541C11.7296 2.80123 11.4286 3.52795 11.4286 4.28571C11.4286 5.04348 11.7296 5.7702 12.2654 6.30602C12.8012 6.84184 13.528 7.14286 14.2857 7.14286ZM12.8571 10.8486V10.7143C12.8582 9.94137 12.6074 9.18914 12.1429 8.57143H16.8186C17.7843 8.57143 18.5686 9.35429 18.5686 10.3214C18.5686 10.3214 18.5686 13.5714 14.2829 13.5714C13.4286 13.5714 12.7443 13.4429 12.1971 13.2357C12.5384 12.6104 12.7552 11.9249 12.8357 11.2171C12.8443 11.1286 12.85 11.0529 12.8529 10.99L12.8571 10.8486ZM11.4286 10.7143C11.4286 10.146 11.2028 9.60092 10.8009 9.19906C10.3991 8.79719 9.85403 8.57143 9.28571 8.57143H2.14286C1.57454 8.57143 1.02949 8.79719 0.627628 9.19906C0.225765 9.60092 0 10.146 0 10.7143V10.8214C0 10.8214 0 15 5.71428 15C11.16 15 11.4157 11.2057 11.4286 10.8486V10.8214V10.7143Z" fill="#495862"/>
</svg>
