<svg width="29" height="26" viewBox="0 0 29 26" fill="none" xmlns="http://www.w3.org/2000/svg">
<path d="M20.5402 20.0124L17.7174 17.1761L18.7124 16.1763L20.5402 18.0057L25.1909 13.3328L26.1859 14.3397M21.9516 8.66699L15.6002 11.5034V15.7579C15.6002 19.6934 18.3102 23.3735 21.9516 24.267C25.5931 23.3735 28.3031 19.6934 28.3031 15.7579V11.5034L21.9516 8.66699Z" fill="#495862"/>
<path d="M11.0365 5.32117C11.0365 4.62295 10.7533 3.99096 10.2963 3.5339C9.83873 3.07634 9.20674 2.79321 8.50852 2.79321C7.8103 2.79321 7.17831 3.07634 6.72075 3.5339C6.2637 3.99096 5.98057 4.62295 5.98057 5.32117C5.98057 6.01939 6.2637 6.65137 6.72075 7.10843C7.17831 7.56599 7.8103 7.84912 8.50852 7.84912C9.20674 7.84912 9.83873 7.56599 10.2963 7.10843C10.5313 6.87397 10.7177 6.59537 10.8447 6.28866C10.9717 5.98194 11.0369 5.65315 11.0365 5.32117ZM5.47498 10.3771C5.47498 10.8827 6.61255 11.3883 8.50852 11.3883C10.2872 11.3883 11.5421 10.8827 11.5421 10.3771C11.5421 9.36589 10.3519 8.35471 8.50852 8.35471C6.61255 8.35471 5.47498 9.36589 5.47498 10.3771Z" fill="#495862"/>
<path fill-rule="evenodd" clip-rule="evenodd" d="M19.4414 6.5V2.78571C19.4414 2.04657 19.1343 1.33807 18.587 0.816214C18.0407 0.293428 17.299 0 16.5252 0C13.1589 0 6.2825 0 2.91622 0C2.14245 0 1.40076 0.293428 0.854452 0.816214C0.307175 1.33807 0 2.04657 0 2.78571V23.2143C0 23.9534 0.307175 24.6619 0.854452 25.1838C1.40076 25.7066 2.14245 26 2.91622 26C5.4436 26 12.9441 26 16.5243 26C17.0608 26 17.4963 25.584 17.4963 25.0714C17.4963 24.5589 17.0608 24.1429 16.5243 24.1429C12.9441 24.1429 5.4436 24.1429 2.91622 24.1429C2.65862 24.1429 2.41074 24.0454 2.22896 23.8708C2.04621 23.6971 1.94414 23.4604 1.94414 23.2143V2.78571C1.94414 2.53964 2.04621 2.30286 2.22896 2.12921C2.41074 1.95464 2.65862 1.85714 2.91622 1.85714H16.5252C16.7828 1.85714 17.0307 1.95464 17.2125 2.12921C17.3952 2.30286 17.4973 2.53964 17.4973 2.78571V6.5C17.4973 7.01257 17.9328 7.42857 18.4694 7.42857C19.006 7.42857 19.4414 7.01257 19.4414 6.5Z" fill="#495862"/>
<path fill-rule="evenodd" clip-rule="evenodd" d="M4.94192 14.8047H12.7185C13.2551 14.8047 13.6906 14.4851 13.6906 14.0913C13.6906 13.6975 13.2551 13.3779 12.7185 13.3779H4.94192C4.40534 13.3779 3.96985 13.6975 3.96985 14.0913C3.96985 14.4851 4.40534 14.8047 4.94192 14.8047Z" fill="#495862"/>
<path fill-rule="evenodd" clip-rule="evenodd" d="M4.9416 18.1875H12.7156C13.252 18.1875 13.6874 17.8679 13.6874 17.4741C13.6874 17.0803 13.252 16.7607 12.7156 16.7607H4.9416C4.40519 16.7607 3.96985 17.0803 3.96985 17.4741C3.96985 17.8679 4.40519 18.1875 4.9416 18.1875Z" fill="#495862"/>
<path fill-rule="evenodd" clip-rule="evenodd" d="M4.94192 21.625H12.7185C13.2551 21.625 13.6906 21.3054 13.6906 20.9116C13.6906 20.5178 13.2551 20.1982 12.7185 20.1982H4.94192C4.40534 20.1982 3.96985 20.5178 3.96985 20.9116C3.96985 21.3054 4.40534 21.625 4.94192 21.625Z" fill="#495862"/>
</svg>
