<svg width="18" height="22" viewBox="0 0 18 22" fill="none" xmlns="http://www.w3.org/2000/svg">
<path d="M15.7143 8.64286C15.7143 6.7674 14.9693 4.96875 13.6431 3.6426C12.317 2.31645 10.5183 1.57143 8.64286 1.57143C6.7674 1.57143 4.96875 2.31645 3.6426 3.6426C2.31645 4.96875 1.57143 6.7674 1.57143 8.64286C1.57143 11.5437 3.89243 15.3246 8.64286 19.8534C13.3933 15.3246 15.7143 11.5437 15.7143 8.64286ZM8.64286 22C2.88043 16.7624 0 12.309 0 8.64286C0 6.35063 0.910584 4.15228 2.53143 2.53143C4.15228 0.910584 6.35063 0 8.64286 0C10.9351 0 13.1334 0.910584 14.7543 2.53143C16.3751 4.15228 17.2857 6.35063 17.2857 8.64286C17.2857 12.309 14.4053 16.7624 8.64286 22Z" fill="#495862"/>
<path d="M8.64268 10.9996C9.26784 10.9996 9.86738 10.7512 10.3094 10.3092C10.7515 9.86714 10.9998 9.26759 10.9998 8.64244C10.9998 8.01729 10.7515 7.41774 10.3094 6.97569C9.86738 6.53364 9.26784 6.2853 8.64268 6.2853C8.01753 6.2853 7.41798 6.53364 6.97593 6.97569C6.53388 7.41774 6.28554 8.01729 6.28554 8.64244C6.28554 9.26759 6.53388 9.86714 6.97593 10.3092C7.41798 10.7512 8.01753 10.9996 8.64268 10.9996ZM8.64268 12.571C7.60076 12.571 6.60151 12.1571 5.86476 11.4204C5.12801 10.6836 4.71411 9.68436 4.71411 8.64244C4.71411 7.60052 5.12801 6.60127 5.86476 5.86452C6.60151 5.12777 7.60076 4.71387 8.64268 4.71387C9.6846 4.71387 10.6839 5.12777 11.4206 5.86452C12.1574 6.60127 12.5713 7.60052 12.5713 8.64244C12.5713 9.68436 12.1574 10.6836 11.4206 11.4204C10.6839 12.1571 9.6846 12.571 8.64268 12.571Z" fill="#495862"/>
</svg>
