<svg width="19" height="18" viewBox="0 0 19 18" fill="none" xmlns="http://www.w3.org/2000/svg">
<path d="M1.28571 1.28571H11.5714V7.58571H12.8571V1.28571C12.8571 0.944722 12.7217 0.617695 12.4806 0.376577C12.2394 0.135459 11.9124 0 11.5714 0H1.28571C0.944722 0 0.617695 0.135459 0.376577 0.376577C0.135459 0.617695 0 0.944722 0 1.28571V16.7143C0 17.0553 0.135459 17.3823 0.376577 17.6234C0.617695 17.8645 0.944722 18 1.28571 18H11.5714C11.9124 18 12.2394 17.8645 12.4806 17.6234C12.7217 17.3823 12.8571 17.0553 12.8571 16.7143H1.28571V1.28571Z" fill="#495862"/>
<path d="M14.8885 8.53739C14.7656 8.43208 14.6074 8.37704 14.4456 8.38329C14.2838 8.38954 14.1303 8.45661 14.0158 8.5711C13.9013 8.68559 13.8343 8.83907 13.828 9.00086C13.8218 9.16265 13.8768 9.32084 13.9821 9.44382L16.155 11.5717H6.83353C6.66303 11.5717 6.49952 11.6394 6.37896 11.76C6.2584 11.8805 6.19067 12.044 6.19067 12.2145C6.19067 12.385 6.2584 12.5485 6.37896 12.6691C6.49952 12.7897 6.66303 12.8574 6.83353 12.8574H16.155L13.9821 15.0817C13.9148 15.1393 13.8602 15.2102 13.8216 15.29C13.783 15.3697 13.7613 15.4566 13.7579 15.5451C13.7545 15.6337 13.7694 15.722 13.8017 15.8045C13.834 15.887 13.883 15.9619 13.9457 16.0245C14.0083 16.0872 14.0833 16.1362 14.1658 16.1685C14.2482 16.2008 14.3365 16.2158 14.4251 16.2123C14.5136 16.2089 14.6005 16.1872 14.6802 16.1486C14.76 16.1101 14.8309 16.0554 14.8885 15.9881L18.6428 12.2595L14.8885 8.53739Z" fill="#495862"/>
</svg>
