<svg width="25" height="15" viewBox="0 0 25 15" fill="none" xmlns="http://www.w3.org/2000/svg">
<path d="M8.85425 1.60425H15.4167V13.3959H8.85425V1.60425Z" fill="#FF5F00"/>
<path d="M9.27087 7.5C9.27087 5.1042 10.3958 2.97916 12.1249 1.60413C10.8542 0.604145 9.25009 0 7.50009 0C3.35412 0 0 3.35412 0 7.5C0 11.6458 3.35412 15 7.5 15C9.24999 15 10.8541 14.3959 12.1249 13.3958C10.3958 12.0416 9.27087 9.8958 9.27087 7.5Z" fill="#EB001B"/>
<path d="M24.2707 7.5C24.2707 11.6458 20.9166 15 16.7707 15C15.0207 15 13.4166 14.3959 12.1458 13.3958C13.8957 12.0208 14.9999 9.8958 14.9999 7.5C14.9999 5.1042 13.8749 2.97916 12.1458 1.60413C13.4165 0.604145 15.0207 0 16.7707 0C20.9166 0 24.2707 3.375 24.2707 7.5Z" fill="#F79E1B"/>
</svg>
